<mxfile host="app.diagrams.net" agent="Mozilla/5.0 (Windows NT 10.0; Win64; x64) AppleWebKit/537.36 (KHTML, like Gecko) Chrome/136.0.0.0 Safari/537.36 Edg/136.0.0.0" version="26.2.14">
  <diagram name="Сторінка-1" id="pGhmv_OhXcWUFMXPGKny">
    <mxGraphModel dx="1034" dy="536" grid="1" gridSize="10" guides="1" tooltips="1" connect="1" arrows="1" fold="1" page="1" pageScale="1" pageWidth="827" pageHeight="1169" math="0" shadow="0">
      <root>
        <mxCell id="0" />
        <mxCell id="1" parent="0" />
        <mxCell id="2uwHAYvP6VG0RAbxjRP3-1" style="edgeStyle=orthogonalEdgeStyle;rounded=0;orthogonalLoop=1;jettySize=auto;html=1;exitX=1;exitY=0.3333333333333333;exitDx=0;exitDy=0;exitPerimeter=0;entryX=0.5;entryY=0;entryDx=0;entryDy=0;" edge="1" parent="1" source="ae0fMmM2awN7uDDBGkP6-1" target="ae0fMmM2awN7uDDBGkP6-5">
          <mxGeometry relative="1" as="geometry" />
        </mxCell>
        <mxCell id="ae0fMmM2awN7uDDBGkP6-1" value="Fan&lt;div&gt;&lt;br&gt;&lt;/div&gt;" style="shape=umlActor;verticalLabelPosition=bottom;verticalAlign=top;html=1;outlineConnect=0;" parent="1" vertex="1">
          <mxGeometry x="150" y="180" width="90" height="140" as="geometry" />
        </mxCell>
        <mxCell id="ae0fMmM2awN7uDDBGkP6-8" style="edgeStyle=orthogonalEdgeStyle;rounded=0;orthogonalLoop=1;jettySize=auto;html=1;exitX=0.5;exitY=1;exitDx=0;exitDy=0;" parent="1" source="ae0fMmM2awN7uDDBGkP6-5" target="ae0fMmM2awN7uDDBGkP6-7" edge="1">
          <mxGeometry relative="1" as="geometry" />
        </mxCell>
        <mxCell id="ae0fMmM2awN7uDDBGkP6-17" style="edgeStyle=orthogonalEdgeStyle;rounded=0;orthogonalLoop=1;jettySize=auto;html=1;exitX=1;exitY=0;exitDx=0;exitDy=0;entryX=0;entryY=0.5;entryDx=0;entryDy=0;" parent="1" source="ae0fMmM2awN7uDDBGkP6-5" target="ae0fMmM2awN7uDDBGkP6-9" edge="1">
          <mxGeometry relative="1" as="geometry" />
        </mxCell>
        <mxCell id="ae0fMmM2awN7uDDBGkP6-18" style="edgeStyle=orthogonalEdgeStyle;rounded=0;orthogonalLoop=1;jettySize=auto;html=1;exitX=1;exitY=0.5;exitDx=0;exitDy=0;" parent="1" source="ae0fMmM2awN7uDDBGkP6-5" target="ae0fMmM2awN7uDDBGkP6-10" edge="1">
          <mxGeometry relative="1" as="geometry" />
        </mxCell>
        <mxCell id="ae0fMmM2awN7uDDBGkP6-5" value="Авторизуватися" style="ellipse;whiteSpace=wrap;html=1;fillColor=#1ba1e2;fontColor=#ffffff;strokeColor=#006EAF;" parent="1" vertex="1">
          <mxGeometry x="470" y="240" width="120" height="80" as="geometry" />
        </mxCell>
        <mxCell id="ae0fMmM2awN7uDDBGkP6-12" style="edgeStyle=orthogonalEdgeStyle;rounded=0;orthogonalLoop=1;jettySize=auto;html=1;exitX=0.5;exitY=1;exitDx=0;exitDy=0;" parent="1" source="ae0fMmM2awN7uDDBGkP6-7" target="ae0fMmM2awN7uDDBGkP6-11" edge="1">
          <mxGeometry relative="1" as="geometry" />
        </mxCell>
        <mxCell id="ae0fMmM2awN7uDDBGkP6-13" value="&amp;lt;&amp;lt;extend&amp;gt;&amp;gt;" style="edgeLabel;html=1;align=center;verticalAlign=middle;resizable=0;points=[];" parent="ae0fMmM2awN7uDDBGkP6-12" vertex="1" connectable="0">
          <mxGeometry x="0.1467" y="4" relative="1" as="geometry">
            <mxPoint as="offset" />
          </mxGeometry>
        </mxCell>
        <mxCell id="ae0fMmM2awN7uDDBGkP6-7" value="Ввести дані карти" style="ellipse;whiteSpace=wrap;html=1;fillColor=#1ba1e2;fontColor=#ffffff;strokeColor=#006EAF;" parent="1" vertex="1">
          <mxGeometry x="470" y="350" width="120" height="80" as="geometry" />
        </mxCell>
        <mxCell id="ae0fMmM2awN7uDDBGkP6-9" value="Вибрати матч" style="ellipse;whiteSpace=wrap;html=1;fillColor=#1ba1e2;fontColor=#ffffff;strokeColor=#006EAF;" parent="1" vertex="1">
          <mxGeometry x="650" y="130" width="120" height="80" as="geometry" />
        </mxCell>
        <mxCell id="ae0fMmM2awN7uDDBGkP6-10" value="Купити квиток" style="ellipse;whiteSpace=wrap;html=1;fillColor=#1ba1e2;fontColor=#ffffff;strokeColor=#006EAF;" parent="1" vertex="1">
          <mxGeometry x="650" y="240" width="120" height="80" as="geometry" />
        </mxCell>
        <mxCell id="ae0fMmM2awN7uDDBGkP6-11" value="Mono/LiqPay" style="ellipse;whiteSpace=wrap;html=1;fillColor=#1ba1e2;fontColor=#ffffff;strokeColor=#006EAF;" parent="1" vertex="1">
          <mxGeometry x="650" y="370" width="120" height="80" as="geometry" />
        </mxCell>
        <mxCell id="ae0fMmM2awN7uDDBGkP6-14" value="" style="endArrow=none;dashed=1;html=1;dashPattern=1 3;strokeWidth=2;rounded=0;entryX=0.5;entryY=1;entryDx=0;entryDy=0;exitX=0.5;exitY=0;exitDx=0;exitDy=0;" parent="1" source="ae0fMmM2awN7uDDBGkP6-10" target="ae0fMmM2awN7uDDBGkP6-9" edge="1">
          <mxGeometry width="50" height="50" relative="1" as="geometry">
            <mxPoint x="390" y="310" as="sourcePoint" />
            <mxPoint x="440" y="260" as="targetPoint" />
          </mxGeometry>
        </mxCell>
        <mxCell id="ae0fMmM2awN7uDDBGkP6-15" value="" style="endArrow=none;dashed=1;html=1;dashPattern=1 3;strokeWidth=2;rounded=0;entryX=0.5;entryY=1;entryDx=0;entryDy=0;exitX=0.5;exitY=0;exitDx=0;exitDy=0;" parent="1" source="ae0fMmM2awN7uDDBGkP6-11" target="ae0fMmM2awN7uDDBGkP6-10" edge="1">
          <mxGeometry width="50" height="50" relative="1" as="geometry">
            <mxPoint x="690" y="380" as="sourcePoint" />
            <mxPoint x="740" y="330" as="targetPoint" />
          </mxGeometry>
        </mxCell>
        <mxCell id="ae0fMmM2awN7uDDBGkP6-16" value="&amp;lt;&amp;lt;include&amp;gt;&amp;gt;" style="edgeLabel;html=1;align=center;verticalAlign=middle;resizable=0;points=[];" parent="ae0fMmM2awN7uDDBGkP6-15" vertex="1" connectable="0">
          <mxGeometry x="-0.12" y="2" relative="1" as="geometry">
            <mxPoint as="offset" />
          </mxGeometry>
        </mxCell>
      </root>
    </mxGraphModel>
  </diagram>
</mxfile>
